<mxfile host="app.diagrams.net" agent="Mozilla/5.0 (Windows NT 10.0; Win64; x64) AppleWebKit/537.36 (KHTML, like Gecko) Chrome/131.0.0.0 Safari/537.36 Edg/131.0.0.0" version="25.0.3">
  <diagram name="Trang-1" id="HvJcxZwOw_y9SSh3-0oy">
    <mxGraphModel dx="1042" dy="565" grid="1" gridSize="10" guides="1" tooltips="1" connect="1" arrows="1" fold="1" page="1" pageScale="1" pageWidth="827" pageHeight="1169" math="0" shadow="0">
      <root>
        <mxCell id="0" />
        <mxCell id="1" parent="0" />
        <mxCell id="Sn-88tH2BR_mGSbFlyu6-4" style="edgeStyle=orthogonalEdgeStyle;rounded=0;orthogonalLoop=1;jettySize=auto;html=1;entryX=0.5;entryY=0;entryDx=0;entryDy=0;" parent="1" source="20IK43yaZhxeLT1VN2WC-1" target="Sn-88tH2BR_mGSbFlyu6-3" edge="1">
          <mxGeometry relative="1" as="geometry" />
        </mxCell>
        <mxCell id="20IK43yaZhxeLT1VN2WC-1" value="Start" style="strokeWidth=2;html=1;shape=mxgraph.flowchart.start_1;whiteSpace=wrap;" parent="1" vertex="1">
          <mxGeometry x="340" y="90" width="100" height="60" as="geometry" />
        </mxCell>
        <mxCell id="20IK43yaZhxeLT1VN2WC-2" value="End" style="strokeWidth=2;html=1;shape=mxgraph.flowchart.start_1;whiteSpace=wrap;" parent="1" vertex="1">
          <mxGeometry x="340" y="330" width="100" height="60" as="geometry" />
        </mxCell>
        <mxCell id="ckBQtq4vabOGVkQxpXdF-8" value="" style="edgeStyle=orthogonalEdgeStyle;rounded=0;orthogonalLoop=1;jettySize=auto;html=1;" edge="1" parent="1" source="Sn-88tH2BR_mGSbFlyu6-3" target="ckBQtq4vabOGVkQxpXdF-7">
          <mxGeometry relative="1" as="geometry" />
        </mxCell>
        <mxCell id="Sn-88tH2BR_mGSbFlyu6-3" value="Input N" style="rounded=1;whiteSpace=wrap;html=1;absoluteArcSize=1;arcSize=14;strokeWidth=2;" parent="1" vertex="1">
          <mxGeometry x="340" y="180" width="100" height="40" as="geometry" />
        </mxCell>
        <mxCell id="ckBQtq4vabOGVkQxpXdF-10" value="" style="edgeStyle=orthogonalEdgeStyle;rounded=0;orthogonalLoop=1;jettySize=auto;html=1;" edge="1" parent="1" source="ckBQtq4vabOGVkQxpXdF-7" target="ckBQtq4vabOGVkQxpXdF-9">
          <mxGeometry relative="1" as="geometry" />
        </mxCell>
        <mxCell id="ckBQtq4vabOGVkQxpXdF-12" value="" style="edgeStyle=orthogonalEdgeStyle;rounded=0;orthogonalLoop=1;jettySize=auto;html=1;" edge="1" parent="1" source="ckBQtq4vabOGVkQxpXdF-7" target="ckBQtq4vabOGVkQxpXdF-11">
          <mxGeometry relative="1" as="geometry" />
        </mxCell>
        <mxCell id="ckBQtq4vabOGVkQxpXdF-7" value="If N&amp;gt;5 then" style="rhombus;whiteSpace=wrap;html=1;rounded=1;arcSize=14;strokeWidth=2;" vertex="1" parent="1">
          <mxGeometry x="350" y="240" width="80" height="50" as="geometry" />
        </mxCell>
        <mxCell id="ckBQtq4vabOGVkQxpXdF-9" value="Print(Đạt)" style="whiteSpace=wrap;html=1;rounded=1;arcSize=14;strokeWidth=2;" vertex="1" parent="1">
          <mxGeometry x="480" y="235" width="120" height="60" as="geometry" />
        </mxCell>
        <mxCell id="ckBQtq4vabOGVkQxpXdF-11" value="Print(Không đạt)" style="whiteSpace=wrap;html=1;rounded=1;arcSize=14;strokeWidth=2;" vertex="1" parent="1">
          <mxGeometry x="190" y="235" width="120" height="60" as="geometry" />
        </mxCell>
        <mxCell id="ckBQtq4vabOGVkQxpXdF-14" style="edgeStyle=orthogonalEdgeStyle;rounded=0;orthogonalLoop=1;jettySize=auto;html=1;entryX=0;entryY=0.5;entryDx=0;entryDy=0;entryPerimeter=0;" edge="1" parent="1" source="ckBQtq4vabOGVkQxpXdF-11" target="20IK43yaZhxeLT1VN2WC-2">
          <mxGeometry relative="1" as="geometry">
            <Array as="points">
              <mxPoint x="230" y="360" />
            </Array>
          </mxGeometry>
        </mxCell>
        <mxCell id="ckBQtq4vabOGVkQxpXdF-15" style="edgeStyle=orthogonalEdgeStyle;rounded=0;orthogonalLoop=1;jettySize=auto;html=1;entryX=1;entryY=0.5;entryDx=0;entryDy=0;entryPerimeter=0;" edge="1" parent="1" source="ckBQtq4vabOGVkQxpXdF-9" target="20IK43yaZhxeLT1VN2WC-2">
          <mxGeometry relative="1" as="geometry">
            <Array as="points">
              <mxPoint x="540" y="360" />
            </Array>
          </mxGeometry>
        </mxCell>
        <mxCell id="ckBQtq4vabOGVkQxpXdF-16" value="Flase" style="text;html=1;align=center;verticalAlign=middle;whiteSpace=wrap;rounded=0;" vertex="1" parent="1">
          <mxGeometry x="310" y="235" width="60" height="30" as="geometry" />
        </mxCell>
        <mxCell id="ckBQtq4vabOGVkQxpXdF-17" value="True" style="text;html=1;align=center;verticalAlign=middle;whiteSpace=wrap;rounded=0;" vertex="1" parent="1">
          <mxGeometry x="414" y="235" width="60" height="30" as="geometry" />
        </mxCell>
      </root>
    </mxGraphModel>
  </diagram>
</mxfile>
